<svg xmlns:xlink="http://www.w3.org/1999/xlink" xmlns="http://www.w3.org/2000/svg" version="1.1" width="25" height="22">
  <defs>
    <mask fill="white" id="clip66">
      <path d="M 24.999999999999996 10.99976723000696  L 18.750000469175927 0  L 6.24999906164814 0  L 0 10.99976723000696  L 6.24999906164814 21.99999988081414  L 18.750000469175927 21.99999988081414  L 24.999999999999996 10.99976723000696  Z " fill-rule="evenodd"/>
    </mask>
  </defs>
  <g transform="matrix(1 0 0 1 -47 -2405 )">
    <path d="M 24.999999999999996 10.99976723000696  L 18.750000469175927 0  L 6.24999906164814 0  L 0 10.99976723000696  L 6.24999906164814 21.99999988081414  L 18.750000469175927 21.99999988081414  L 24.999999999999996 10.99976723000696  Z " fill-rule="nonzero" fill="#ffffff" stroke="none" fill-opacity="0" transform="matrix(1 0 0 1 47 2405 )"/>
    <path d="M 24.999999999999996 10.99976723000696  L 18.750000469175927 0  L 6.24999906164814 0  L 0 10.99976723000696  L 6.24999906164814 21.99999988081414  L 18.750000469175927 21.99999988081414  L 24.999999999999996 10.99976723000696  Z " stroke-width="4" stroke="#739ec7" fill="none" transform="matrix(1 0 0 1 47 2405 )" mask="url(#clip66)"/>
  </g>
</svg>